<?xml version="1.0" standalone="no"?>
<!DOCTYPE svg PUBLIC "-//W3C//DTD SVG 20010904//EN"
 "http://www.w3.org/TR/2001/REC-SVG-20010904/DTD/svg10.dtd">
<svg version="1.0" xmlns="http://www.w3.org/2000/svg"
 width="1600.000000pt" height="1600.000000pt" viewBox="0 0 1600.000000 1600.000000"
 preserveAspectRatio="xMidYMid meet">
<metadata>
Created by potrace 1.16, written by Peter Selinger 2001-2019
</metadata>
<g transform="translate(0.000000,1600.000000) scale(0.100000,-0.100000)"
fill="#FF4000" stroke="none">
<path d="M11740 13173 c-263 -46 -495 -216 -612 -447 -62 -122 -80 -198 -85
-357 -5 -126 -3 -157 16 -230 52 -207 181 -391 354 -505 148 -98 338 -151 506
-141 500 29 861 457 802 949 -27 223 -133 415 -306 554 -111 90 -221 141 -364
170 -132 27 -191 28 -311 7z M7735 12839 c-517 -39 -895 -113 -1310 -260 -973
-343 -1802 -989 -2382 -1859 -356 -534 -603 -1158 -714 -1805 -99 -577 -87
-1216 32 -1780 54 -254 171 -641 239 -790 5 -11 28 -65 51 -120 24 -55 82
-176 129 -270 538 -1057 1461 -1874 2585 -2290 84 -31 212 -73 330 -108 261
-78 657 -147 970 -168 180 -13 696 -5 815 11 41 6 127 17 190 25 166 21 466
84 620 131 260 77 484 160 670 246 687 319 1280 783 1741 1363 95 119 115 147
220 300 260 378 474 832 612 1295 86 290 139 556 174 880 19 178 22 730 5 900
-48 476 -168 970 -327 1345 -25 61 -51 124 -57 140 -19 51 -201 406 -252 490
-458 758 -1052 1332 -1811 1752 -117 65 -403 203 -420 203 -3 0 -24 9 -48 19
-171 78 -477 176 -752 240 -393 92 -939 138 -1310 110z m1373 -2123 c265 -48
478 -119 681 -227 485 -258 766 -649 820 -1141 34 -304 -7 -566 -124 -803
-211 -426 -638 -749 -1295 -980 -361 -127 -855 -235 -1285 -280 -82 -8 -188
-20 -235 -25 -113 -14 -370 -28 -667 -36 -138 -4 -243 -11 -243 -16 0 -19 53
-145 105 -248 224 -451 562 -721 1032 -827 110 -25 135 -27 368 -27 269 -1
369 11 595 70 354 93 713 271 850 421 l52 57 20 -24 c11 -14 34 -41 51 -60 18
-19 125 -143 238 -275 114 -132 270 -314 348 -404 90 -104 138 -168 133 -175
-171 -229 -378 -408 -649 -560 -316 -177 -746 -300 -1203 -341 -203 -19 -691
-19 -870 -1 -608 63 -1166 290 -1650 674 -209 166 -511 499 -586 647 -14 28
-44 79 -66 115 -47 75 -153 291 -195 400 -62 157 -114 355 -150 575 -24 144
-26 187 -27 420 0 222 3 281 23 405 82 525 239 919 548 1370 80 116 258 316
388 433 516 466 1204 760 2020 863 234 30 277 32 555 29 244 -3 291 -6 418
-29z M8127 9609 c-215 -23 -456 -112 -649 -242 -325 -217 -580 -621 -706
-1119 l-20 -78 208 0 c843 0 1503 162 1808 444 158 147 222 326 188 526 -23
132 -67 220 -151 299 -76 71 -137 104 -251 137 -134 39 -272 50 -427 33z
M4045 4504 c-91 -14 -197 -39 -250 -60 -292 -119 -490 -378 -527 -692 -59
-502 334 -942 840 -942 334 0 640 200 774 505 72 164 91 383 47 547 -71 266
-248 472 -496 578 -100 42 -304 76 -388 64z"/>
</g>
</svg>
