<?xml version="1.0" standalone="no"?>
<!DOCTYPE svg PUBLIC "-//W3C//DTD SVG 20010904//EN"
 "http://www.w3.org/TR/2001/REC-SVG-20010904/DTD/svg10.dtd">
<svg version="1.0" xmlns="http://www.w3.org/2000/svg"
 width="2400.000000pt" height="1055.000000pt" viewBox="0 0 2400.000000 1055.000000"
 preserveAspectRatio="xMidYMid meet">
<metadata>
Created by potrace 1.16, written by Peter Selinger 2001-2019
</metadata>
<g transform="translate(0.000000,1055.000000) scale(0.100000,-0.100000)"
fill="#FF4000" stroke="none">
<path d="M23000 10494 c-25 -8 -97 -23 -160 -35 -141 -25 -177 -35 -215 -64
-16 -12 -54 -34 -82 -49 -60 -30 -172 -136 -198 -187 -10 -19 -34 -56 -55 -84
-21 -28 -46 -77 -55 -110 -10 -33 -30 -86 -46 -117 -37 -74 -49 -156 -49 -353
0 -173 22 -307 59 -368 10 -18 29 -63 41 -101 13 -40 36 -84 55 -105 18 -20
40 -51 49 -69 23 -44 119 -139 183 -180 28 -18 57 -40 64 -48 6 -8 37 -21 68
-30 31 -8 105 -31 165 -50 76 -25 137 -37 197 -41 80 -5 97 -3 186 25 54 17
131 41 170 52 49 14 87 33 117 58 24 20 63 52 85 70 65 52 208 218 215 249 4
15 23 54 42 85 52 86 65 159 71 424 7 306 -7 418 -68 514 -16 25 -35 65 -44
89 -24 70 -183 238 -255 272 -25 12 -60 32 -78 46 -47 36 -93 52 -179 64 -43
6 -104 22 -137 35 -68 27 -83 28 -146 8z M8465 10370 c-33 -10 -91 -25 -130
-34 -43 -10 -83 -27 -105 -44 -19 -16 -57 -41 -85 -55 -27 -15 -60 -42 -73
-61 -12 -18 -34 -39 -48 -46 -13 -8 -34 -30 -46 -49 -12 -20 -39 -59 -60 -88
-25 -33 -50 -85 -68 -140 -16 -48 -38 -113 -49 -143 -16 -42 -20 -80 -21 -162
0 -103 2 -115 51 -260 28 -84 57 -162 65 -173 8 -11 39 -56 68 -101 30 -44 67
-89 82 -99 16 -10 52 -37 79 -61 28 -23 79 -56 115 -73 36 -17 81 -40 101 -51
60 -34 140 -43 344 -37 198 5 236 12 292 53 17 13 55 33 85 44 29 12 69 36 88
54 19 18 52 46 73 61 49 37 171 199 187 250 7 22 29 76 49 120 l36 80 0 185 0
185 -32 60 c-17 33 -36 81 -43 105 -6 25 -14 54 -17 64 -3 10 -22 37 -43 60
-20 23 -43 53 -51 68 -17 32 -154 158 -173 158 -7 0 -44 20 -81 45 -44 28 -88
48 -124 55 -31 6 -88 20 -127 31 -92 25 -253 25 -339 -1z M14870 10383 c-70
-12 -260 -53 -281 -62 -14 -5 -38 -20 -55 -34 -16 -13 -48 -34 -71 -46 -23
-11 -56 -38 -73 -60 -17 -21 -42 -44 -56 -51 -14 -8 -34 -30 -46 -49 -12 -20
-38 -59 -60 -87 -21 -28 -47 -75 -57 -105 -10 -30 -33 -81 -50 -114 -41 -80
-51 -154 -51 -375 0 -224 10 -295 54 -380 18 -36 41 -90 49 -120 11 -36 31
-70 57 -99 22 -24 40 -48 40 -53 0 -12 156 -168 168 -168 5 0 29 -18 53 -40
34 -31 58 -43 114 -55 38 -9 111 -30 160 -48 81 -28 101 -32 205 -31 106 0
121 2 192 31 42 18 107 37 144 44 51 9 75 19 103 43 20 18 52 43 71 56 89 61
225 221 250 295 11 31 28 69 40 85 56 79 75 227 67 534 -6 245 -16 307 -65
383 -16 26 -37 65 -46 86 -30 73 -197 247 -274 284 -25 13 -55 32 -66 43 -32
29 -83 47 -166 59 -41 6 -97 17 -125 26 -46 14 -165 18 -225 8z M12078 10344
c-148 -15 -193 -26 -264 -64 -29 -15 -85 -33 -123 -40 -53 -9 -83 -21 -123
-49 -29 -21 -77 -46 -107 -56 -29 -10 -71 -33 -91 -51 -21 -19 -59 -43 -85
-55 -26 -11 -63 -35 -83 -53 -21 -18 -53 -42 -73 -54 -19 -12 -42 -33 -49 -48
-8 -15 -30 -37 -48 -49 -18 -12 -43 -36 -55 -52 -12 -16 -39 -45 -60 -63 -21
-18 -45 -47 -54 -64 -9 -17 -31 -48 -49 -68 -18 -21 -45 -61 -60 -90 -14 -29
-37 -64 -50 -79 -13 -14 -35 -54 -49 -89 -14 -35 -37 -82 -51 -103 -14 -21
-38 -86 -54 -145 -15 -59 -42 -146 -59 -195 -42 -115 -52 -214 -57 -577 -3
-185 -9 -306 -16 -324 -16 -39 -77 -66 -153 -66 -55 0 -169 -21 -301 -56 -28
-8 -68 -28 -90 -45 -21 -17 -58 -42 -81 -55 -25 -15 -48 -39 -58 -62 -10 -20
-35 -59 -55 -87 -31 -41 -44 -73 -69 -173 -17 -67 -40 -145 -51 -172 -18 -46
-20 -75 -20 -339 0 -189 4 -299 11 -321 21 -58 35 -60 459 -60 l382 0 29 -29
29 -29 0 -2181 c0 -1576 3 -2187 11 -2204 6 -14 22 -30 36 -36 34 -16 1517
-16 1562 0 66 23 61 -150 61 2241 1 1767 3 2176 14 2190 31 42 46 43 656 45
322 1 593 3 602 3 10 0 25 15 35 33 17 29 18 79 21 624 3 616 1 654 -39 694
-19 19 -36 19 -635 19 -688 -1 -643 -6 -664 69 -26 94 -4 360 37 436 9 16 29
56 45 88 29 60 146 187 171 187 8 0 52 19 98 43 l84 42 175 -1 c170 0 178 -1
265 -32 50 -17 135 -41 189 -52 57 -12 118 -31 143 -46 56 -33 93 -29 113 11
13 26 15 129 18 718 2 448 -1 707 -8 744 -14 80 -35 98 -142 122 -49 12 -124
35 -166 52 -43 17 -112 34 -157 40 -44 5 -110 14 -147 19 -95 14 -600 10 -750
-6z M4488 10045 c-3 -4 -88 -11 -187 -16 -152 -8 -209 -16 -358 -49 -98 -22
-222 -46 -276 -54 -65 -10 -121 -25 -165 -46 -37 -17 -115 -42 -174 -55 -64
-15 -123 -34 -148 -50 -23 -14 -78 -35 -122 -46 -84 -21 -126 -39 -166 -70
-13 -10 -53 -28 -90 -39 -37 -12 -84 -36 -105 -52 -21 -16 -66 -39 -100 -50
-34 -12 -82 -35 -107 -53 -25 -18 -70 -43 -100 -57 -31 -14 -71 -39 -90 -55
-19 -17 -53 -38 -75 -47 -22 -9 -56 -32 -75 -50 -19 -19 -54 -43 -77 -55 -22
-11 -62 -39 -88 -61 -25 -22 -50 -40 -56 -40 -5 0 -35 -23 -66 -50 -56 -49
-85 -75 -223 -197 -96 -85 -386 -380 -455 -463 -33 -40 -79 -92 -102 -115 -24
-24 -43 -48 -43 -54 0 -6 -17 -30 -39 -54 -21 -23 -48 -60 -59 -83 -11 -22
-37 -60 -57 -84 -20 -24 -46 -62 -57 -84 -12 -23 -35 -57 -52 -78 -17 -20 -40
-60 -50 -89 -11 -29 -34 -69 -53 -90 -18 -20 -42 -62 -53 -94 -11 -31 -33 -74
-50 -95 -17 -21 -40 -67 -51 -102 -11 -35 -33 -83 -49 -108 -16 -25 -39 -83
-53 -130 -13 -47 -40 -114 -60 -150 -21 -39 -40 -93 -47 -135 -7 -38 -28 -105
-46 -148 -24 -55 -40 -116 -54 -205 -11 -70 -36 -179 -55 -242 -30 -100 -36
-141 -50 -323 -17 -241 -21 -926 -5 -1106 25 -288 33 -338 61 -426 17 -49 34
-121 39 -160 17 -122 31 -178 61 -248 17 -37 38 -107 49 -155 11 -56 30 -106
49 -138 17 -27 40 -83 51 -124 12 -41 34 -96 50 -122 15 -26 40 -82 55 -125
15 -43 40 -94 56 -114 15 -20 39 -66 53 -104 13 -37 38 -81 54 -99 16 -17 39
-53 51 -79 11 -27 33 -63 47 -80 15 -18 37 -54 49 -82 13 -27 35 -61 50 -75
15 -14 36 -43 47 -65 12 -22 39 -60 60 -85 22 -25 47 -58 55 -75 9 -16 36 -53
62 -82 25 -28 66 -75 91 -104 61 -72 505 -512 577 -572 153 -127 264 -210 339
-252 29 -17 66 -43 81 -57 16 -14 53 -38 83 -53 30 -15 72 -42 92 -60 21 -17
56 -37 77 -44 22 -6 63 -28 93 -48 29 -20 80 -46 112 -59 33 -13 66 -30 75
-38 24 -21 92 -53 131 -61 38 -8 100 -37 140 -66 14 -10 63 -28 110 -39 47
-12 101 -32 120 -44 46 -30 89 -44 192 -60 47 -8 117 -28 156 -45 42 -19 109
-37 169 -46 54 -9 145 -23 203 -32 58 -9 134 -25 170 -35 100 -29 332 -43 690
-42 408 0 605 17 770 65 35 11 122 26 191 34 70 8 133 17 141 19 7 3 56 20
108 40 52 19 132 40 177 46 63 9 94 20 133 45 31 20 85 41 136 54 48 11 107
33 133 49 25 16 81 40 123 54 42 15 94 40 115 56 21 16 67 40 103 52 36 13 81
35 101 51 20 15 61 38 92 49 31 12 75 37 98 56 23 19 58 42 78 50 19 8 58 32
85 53 28 21 67 47 86 56 19 10 54 34 76 54 23 20 59 48 80 63 22 16 64 48 94
73 30 25 82 66 115 91 98 74 512 492 551 557 20 31 39 57 44 57 5 0 28 27 50
60 22 33 49 64 60 70 11 6 31 32 44 58 13 26 36 58 51 72 15 14 40 50 55 80
15 30 38 64 50 75 13 11 34 45 47 75 14 30 38 69 54 85 16 17 40 60 54 95 14
35 37 76 51 91 14 15 37 57 50 93 13 36 39 89 58 116 21 30 39 74 46 108 13
60 26 90 64 146 13 19 32 75 44 125 12 49 35 117 51 149 18 36 39 104 52 168
12 60 34 141 49 179 35 90 46 142 60 295 6 69 18 145 26 169 8 25 14 65 14 90
0 25 9 75 20 109 19 59 20 93 20 465 0 422 0 428 -51 659 -10 48 -19 103 -19
123 0 34 -6 84 -31 244 -6 35 -21 92 -35 125 -14 34 -36 112 -49 175 -13 62
-38 141 -54 175 -16 34 -39 100 -51 146 -12 47 -37 112 -55 145 -18 33 -43 94
-55 135 -12 41 -33 90 -47 109 -15 18 -38 67 -53 107 -16 41 -41 89 -58 108
-16 18 -37 57 -48 86 -10 28 -33 68 -50 89 -18 20 -39 54 -48 74 -8 21 -33 59
-55 85 -21 26 -50 70 -64 97 -14 28 -35 59 -47 70 -12 11 -30 36 -40 55 -10
19 -30 46 -45 60 -15 14 -43 50 -62 80 -20 30 -55 78 -80 105 -24 28 -65 74
-91 103 -26 30 -60 66 -76 80 -17 15 -41 40 -55 56 -14 16 -37 39 -50 50 -13
12 -36 34 -50 50 -14 15 -37 38 -50 50 -23 21 -63 61 -99 101 -10 11 -32 28
-48 37 -16 10 -63 47 -104 83 -41 36 -104 85 -140 109 -36 24 -76 56 -90 71
-14 15 -39 33 -56 40 -17 7 -46 27 -64 45 -18 18 -60 45 -94 60 -34 15 -70 38
-81 50 -11 13 -44 33 -73 46 -29 13 -75 39 -102 58 -27 19 -76 43 -108 54 -32
11 -78 33 -101 50 -23 17 -66 38 -94 48 -29 9 -77 32 -107 50 -30 18 -94 45
-143 59 -48 14 -109 36 -135 49 -47 24 -72 32 -189 60 -33 8 -101 31 -150 50
-52 20 -116 37 -158 41 -77 7 -228 40 -290 62 -84 30 -363 51 -795 59 -173 3
-318 3 -322 -1z m1362 -2129 c47 -15 143 -36 214 -47 132 -20 177 -34 226 -69
16 -11 63 -29 106 -40 43 -10 90 -29 104 -40 14 -11 58 -36 97 -56 40 -19 88
-47 105 -63 18 -15 47 -36 65 -45 29 -14 212 -182 252 -230 9 -11 37 -43 62
-70 26 -28 54 -66 63 -84 10 -19 32 -53 50 -76 18 -24 41 -72 50 -107 10 -35
31 -89 46 -119 35 -70 47 -113 60 -225 17 -151 19 -322 4 -485 -17 -180 -24
-210 -64 -268 -16 -24 -36 -67 -44 -96 -9 -29 -27 -68 -40 -87 -14 -19 -36
-55 -50 -80 -51 -94 -254 -314 -332 -359 -28 -16 -59 -39 -70 -51 -10 -12 -37
-30 -59 -41 -22 -11 -58 -37 -80 -58 -23 -20 -65 -45 -94 -56 -29 -10 -70 -33
-91 -52 -22 -18 -64 -41 -95 -52 -31 -11 -80 -33 -108 -49 -29 -16 -90 -39
-137 -51 -46 -12 -112 -37 -145 -55 -43 -24 -87 -38 -155 -50 -52 -9 -124 -29
-160 -45 -79 -34 -129 -45 -290 -65 -77 -10 -159 -28 -213 -46 -92 -32 -140
-38 -437 -59 -91 -7 -203 -21 -250 -32 -63 -15 -101 -18 -150 -13 -48 5 -82 2
-126 -10 -44 -13 -122 -19 -309 -24 -171 -4 -257 -10 -272 -19 -36 -20 -39
-57 -9 -96 14 -19 34 -66 45 -106 13 -49 29 -82 49 -103 17 -18 42 -59 57 -92
14 -33 39 -73 54 -90 16 -16 40 -48 53 -70 34 -54 224 -243 268 -265 19 -10
48 -32 64 -49 16 -17 54 -40 85 -52 30 -11 80 -36 110 -54 31 -19 87 -42 126
-51 39 -9 117 -30 175 -47 221 -64 573 -67 785 -7 55 16 154 38 220 49 90 16
137 30 188 56 37 19 103 43 147 54 50 13 98 33 130 55 27 19 72 42 98 50 27 9
62 30 78 47 16 17 43 38 59 46 17 9 49 33 72 54 41 38 94 56 130 45 10 -3 50
-42 88 -87 39 -44 93 -107 120 -138 28 -31 79 -92 115 -136 36 -43 84 -99 108
-124 23 -25 42 -50 42 -55 0 -5 24 -32 53 -61 85 -86 136 -150 157 -200 26
-61 25 -73 -8 -126 -39 -60 -252 -262 -332 -314 -36 -23 -72 -50 -80 -59 -8
-10 -37 -28 -65 -41 -27 -12 -67 -36 -88 -53 -21 -17 -62 -38 -90 -48 -29 -9
-77 -32 -107 -50 -30 -18 -86 -40 -124 -49 -39 -8 -104 -31 -145 -50 -81 -36
-130 -49 -226 -59 -54 -6 -222 -46 -330 -78 -29 -9 -192 -12 -595 -13 -545 0
-556 0 -615 22 -75 27 -169 49 -309 73 -81 14 -127 28 -176 54 -38 20 -97 40
-134 47 -47 8 -82 22 -118 46 -51 35 -70 44 -145 63 -23 6 -60 26 -83 45 -23
19 -64 43 -92 52 -28 10 -66 33 -85 51 -20 18 -57 44 -84 57 -26 14 -63 38
-81 53 -18 16 -50 38 -71 50 -44 25 -49 30 -297 276 -193 192 -290 299 -290
319 0 7 -16 32 -36 57 -20 25 -52 77 -70 115 -19 39 -45 85 -58 103 -14 18
-32 56 -42 85 -9 29 -32 75 -51 104 -20 29 -44 83 -55 125 -10 40 -30 91 -43
113 -30 51 -51 129 -65 232 -6 45 -21 112 -35 150 -36 105 -73 498 -55 592 5
29 10 104 10 166 0 76 5 127 16 156 23 65 53 199 74 326 12 76 29 136 53 190
20 43 43 107 52 143 9 36 31 88 49 115 18 28 41 74 50 103 10 29 32 74 50 100
18 26 41 70 51 97 10 28 35 73 56 100 20 28 46 68 57 91 11 22 28 47 38 55 10
8 29 32 43 55 64 99 376 427 458 480 29 19 60 45 68 58 8 13 37 35 63 49 26
14 58 38 72 52 14 15 49 38 79 51 29 13 69 38 88 55 19 16 60 41 90 54 30 14
68 36 84 49 15 13 59 34 96 46 37 13 93 37 123 56 30 18 90 42 133 53 42 12
102 35 132 52 40 23 84 36 164 49 64 11 129 29 158 43 70 36 109 44 288 63 88
9 176 23 195 31 19 8 73 19 120 24 47 4 103 13 125 18 22 5 179 8 350 7 307
-2 311 -3 395 -30z M4806 6824 c-88 -10 -123 -20 -180 -48 -39 -19 -103 -44
-142 -55 -40 -12 -88 -34 -109 -51 -21 -17 -57 -39 -80 -49 -22 -10 -57 -32
-76 -48 -18 -17 -57 -44 -85 -61 -46 -29 -82 -68 -182 -195 -18 -23 -48 -61
-68 -85 -20 -24 -49 -69 -65 -102 -15 -32 -33 -61 -39 -65 -14 -8 -60 -100
-60 -119 0 -8 -18 -50 -41 -93 -26 -48 -46 -105 -55 -153 -8 -41 -30 -108 -49
-147 -43 -90 -45 -126 -8 -150 54 -36 791 -19 901 21 23 8 122 27 220 41 205
30 240 38 304 71 27 14 87 34 136 45 95 23 116 31 149 61 12 11 51 31 88 44
73 27 129 69 236 179 56 58 75 86 105 158 54 130 64 172 64 256 -1 78 -4 88
-60 226 -28 68 -43 90 -105 150 -78 75 -175 141 -228 155 -109 30 -387 37
-571 14z M15510 7969 c-177 -19 -222 -28 -286 -58 -37 -17 -102 -40 -145 -51
-49 -12 -97 -32 -129 -54 -27 -19 -72 -42 -99 -51 -27 -9 -67 -30 -88 -47 -21
-16 -58 -40 -83 -53 -42 -22 -239 -209 -338 -321 -24 -27 -54 -73 -68 -103
-13 -30 -38 -69 -54 -87 -16 -19 -37 -60 -46 -92 -9 -31 -31 -91 -49 -132 -19
-41 -39 -104 -44 -140 -15 -90 -15 -4640 0 -4693 20 -72 -33 -68 845 -65 873
3 833 0 866 68 17 33 18 193 18 2922 0 2095 -3 2894 -11 2911 -6 14 -23 30
-38 37 -35 16 -148 20 -251 9z M16479 7965 c-15 -8 -32 -29 -38 -46 -8 -22
-11 -220 -11 -635 l0 -603 24 -28 24 -28 1410 -5 c1174 -4 1412 -7 1425 -19
33 -26 19 -54 -70 -146 -49 -50 -95 -100 -103 -112 -8 -12 -78 -90 -156 -175
-77 -84 -150 -167 -162 -185 -12 -17 -60 -71 -107 -119 -47 -48 -85 -92 -85
-97 0 -6 -26 -36 -57 -68 -32 -32 -78 -81 -103 -109 -78 -88 -154 -171 -196
-214 -22 -22 -52 -57 -66 -76 -14 -19 -60 -69 -101 -112 -42 -42 -88 -96 -103
-120 -15 -23 -63 -79 -107 -123 -44 -44 -90 -97 -103 -117 -13 -21 -61 -75
-107 -120 -45 -46 -94 -99 -108 -118 -15 -19 -65 -74 -113 -123 -47 -48 -86
-92 -86 -97 0 -6 -39 -50 -86 -98 -48 -48 -98 -105 -112 -127 -14 -22 -69 -85
-121 -141 -53 -55 -129 -140 -170 -187 -41 -48 -78 -87 -82 -87 -5 0 -26 -24
-47 -52 -22 -29 -75 -89 -118 -133 -44 -44 -91 -98 -106 -120 -16 -22 -43 -59
-60 -82 -62 -78 -111 -166 -125 -222 -8 -31 -17 -124 -20 -206 -8 -198 12
-322 65 -399 19 -28 43 -69 52 -91 32 -70 205 -232 272 -254 20 -7 54 -24 75
-38 62 -43 94 -52 239 -68 122 -14 287 -15 1369 -10 677 3 1645 9 2152 13 867
7 923 8 940 25 17 17 18 57 18 653 l0 636 -28 24 -28 24 -1440 0 c-974 0
-1447 3 -1460 10 -26 15 -24 43 8 80 15 18 34 45 42 61 9 16 57 71 107 122 50
50 99 106 107 123 9 18 59 76 112 130 52 54 95 102 95 107 0 5 28 37 63 72 34
35 82 87 107 114 25 28 69 76 98 106 28 31 52 60 52 64 0 5 16 19 35 32 20 13
46 42 59 64 14 23 60 77 103 121 43 43 89 95 103 114 13 19 87 104 164 188 78
85 148 163 156 175 8 12 46 53 84 92 37 38 80 85 95 104 14 19 70 80 124 135
53 55 97 104 97 109 0 7 21 31 153 171 22 23 51 59 67 81 15 22 67 79 114 127
47 47 86 91 86 97 0 5 47 58 105 117 58 58 105 111 105 116 0 6 42 51 93 101
51 51 107 112 124 137 17 25 61 74 98 110 47 45 77 86 101 135 19 39 45 85 59
103 38 53 50 129 50 327 0 208 -11 273 -59 342 -18 27 -42 68 -53 93 -30 67
-193 225 -268 261 -33 16 -72 38 -86 50 -15 11 -53 28 -85 37 -54 15 -265 17
-2264 19 -1907 2 -2209 0 -2231 -12z M23585 7969 c-22 -4 -67 -8 -100 -9 -79
-1 -136 -14 -215 -50 -36 -16 -96 -36 -134 -45 -75 -18 -119 -37 -151 -66 -12
-10 -47 -28 -79 -39 -32 -10 -85 -40 -118 -65 -33 -25 -66 -45 -73 -45 -7 0
-35 -21 -62 -47 -28 -27 -61 -58 -74 -70 -27 -25 -112 -117 -169 -183 -21 -25
-49 -70 -63 -100 -13 -30 -39 -73 -56 -94 -17 -22 -34 -49 -36 -60 -3 -12 -12
-54 -20 -94 -8 -40 -21 -85 -29 -100 -8 -16 -22 -65 -30 -111 -14 -74 -16
-331 -16 -2382 0 -2264 0 -2299 19 -2318 11 -11 37 -24 58 -28 21 -4 393 -8
826 -8 l789 0 19 24 c19 23 19 83 19 2938 l0 2914 -25 24 c-23 24 -30 25 -132
24 -59 -1 -126 -5 -148 -10z M765 1755 c-106 -13 -141 -24 -185 -55 -14 -10
-51 -29 -81 -40 -30 -12 -73 -40 -97 -63 -115 -112 -191 -193 -192 -204 0 -6
-15 -31 -34 -56 -49 -64 -52 -72 -71 -180 -14 -80 -17 -134 -12 -285 5 -203
20 -280 61 -335 13 -18 34 -52 46 -77 34 -68 179 -221 242 -255 29 -15 65 -38
80 -51 35 -29 71 -40 190 -59 53 -8 120 -24 148 -35 65 -26 78 -25 148 4 32
13 92 29 135 35 86 12 131 28 179 64 18 14 53 34 78 46 73 34 225 193 256 266
8 21 30 59 49 86 42 61 54 119 62 285 9 197 -16 363 -63 415 -8 9 -27 45 -42
81 -52 122 -196 267 -317 319 -33 14 -77 37 -99 52 -41 29 -56 32 -191 47
-111 12 -162 11 -290 -5z"/>
</g>
</svg>
